<?xml version="1.0"?>
<svg xmlns="http://www.w3.org/2000/svg" xmlns:xlink="http://www.w3.org/1999/xlink" version="1.1" viewBox="0 0 210 210" width="130px" height="130px"><g transform=""><g fill="none" fill-rule="nonzero" stroke="none" stroke-width="1" stroke-linecap="butt" stroke-linejoin="miter" stroke-miterlimit="10" stroke-dasharray="" stroke-dashoffset="0" font-family="none" font-weight="none" font-size="none" text-anchor="none" style="mix-blend-mode: normal"><path d="M0,210v-210h210v210z" fill="none"/><path d="M11.55,105c0,-51.61101 41.83899,-93.45 93.45,-93.45c51.61101,0 93.45,41.83899 93.45,93.45c0,51.61101 -41.83899,93.45 -93.45,93.45c-51.61101,0 -93.45,-41.83899 -93.45,-93.45zM105,194.25c49.29141,0 89.25,-39.95859 89.25,-89.25c0,-49.29141 -39.95859,-89.25 -89.25,-89.25c-49.29141,0 -89.25,39.95859 -89.25,89.25c0,49.29141 39.95859,89.25 89.25,89.25z" fill="#3498db"/><g id="original-icon" fill="#95a5a6"><path d="M47.5,64.75v11.5h115v-11.5zM47.5,99.25v11.5h115v-11.5zM47.5,133.75v11.5h115v-11.5z"/></g><path d="M105,210c-57.9899,0 -105,-47.0101 -105,-105v0c0,-57.9899 47.0101,-105 105,-105v0c57.9899,0 105,47.0101 105,105v0c0,57.9899 -47.0101,105 -105,105z" fill="none"/><path d="M105,205.8c-55.6703,0 -100.8,-45.1297 -100.8,-100.8v0c0,-55.6703 45.1297,-100.8 100.8,-100.8h0c55.6703,0 100.8,45.1297 100.8,100.8v0c0,55.6703 -45.1297,100.8 -100.8,100.8z" fill="none"/><path d="M105,210c-57.9899,0 -105,-47.0101 -105,-105v0c0,-57.9899 47.0101,-105 105,-105v0c57.9899,0 105,47.0101 105,105v0c0,57.9899 -47.0101,105 -105,105z" fill="none"/><path d="M105,201.6c-53.35071,0 -96.6,-43.24929 -96.6,-96.6v0c0,-53.35071 43.24929,-96.6 96.6,-96.6v0c53.35071,0 96.6,43.24929 96.6,96.6v0c0,53.35071 -43.24929,96.6 -96.6,96.6z" fill="none"/><path d="M105,210c-57.9899,0 -105,-47.0101 -105,-105v0c0,-57.9899 47.0101,-105 105,-105v0c57.9899,0 105,47.0101 105,105v0c0,57.9899 -47.0101,105 -105,105z" fill="none"/><path d="M105,197.4c-51.03111,0 -92.4,-41.36889 -92.4,-92.4v0c0,-51.03111 41.36889,-92.4 92.4,-92.4v0c51.03111,0 92.4,41.36889 92.4,92.4v0c0,51.03111 -41.36889,92.4 -92.4,92.4z" fill="none"/><path d="M105,210c-57.9899,0 -105,-47.0101 -105,-105v0c0,-57.9899 47.0101,-105 105,-105v0c57.9899,0 105,47.0101 105,105v0c0,57.9899 -47.0101,105 -105,105z" fill="none"/><path d="M105,193.2c-48.71151,0 -88.2,-39.48849 -88.2,-88.2v0c0,-48.71151 39.48849,-88.2 88.2,-88.2h0c48.71151,0 88.2,39.48849 88.2,88.2v0c0,48.71151 -39.48849,88.2 -88.2,88.2z" fill="none"/><path d="M105,210c-57.9899,0 -105,-47.0101 -105,-105v0c0,-57.9899 47.0101,-105 105,-105v0c57.9899,0 105,47.0101 105,105v0c0,57.9899 -47.0101,105 -105,105z" fill="none"/><path d="M105,189c-46.39192,0 -84,-37.60808 -84,-84v0c0,-46.39192 37.60808,-84 84,-84v0c46.39192,0 84,37.60808 84,84v0c0,46.39192 -37.60808,84 -84,84z" fill="none"/><path d="M105,210c-57.9899,0 -105,-47.0101 -105,-105v0c0,-57.9899 47.0101,-105 105,-105v0c57.9899,0 105,47.0101 105,105v0c0,57.9899 -47.0101,105 -105,105z" fill="none"/><path d="M105,184.8c-44.07232,0 -79.8,-35.72768 -79.8,-79.8v0c0,-44.07232 35.72768,-79.8 79.8,-79.8h0c44.07232,0 79.8,35.72768 79.8,79.8v0c0,44.07232 -35.72768,79.8 -79.8,79.8z" fill="none"/><path d="M105,210c-57.9899,0 -105,-47.0101 -105,-105v0c0,-57.9899 47.0101,-105 105,-105v0c57.9899,0 105,47.0101 105,105v0c0,57.9899 -47.0101,105 -105,105z" fill="none"/><path d="M105,180.6c-41.75273,0 -75.6,-33.84727 -75.6,-75.6v0c0,-41.75273 33.84727,-75.6 75.6,-75.6v0c41.75273,0 75.6,33.84727 75.6,75.6v0c0,41.75273 -33.84727,75.6 -75.6,75.6z" fill="none"/><path d="M105,210c-57.9899,0 -105,-47.0101 -105,-105v0c0,-57.9899 47.0101,-105 105,-105v0c57.9899,0 105,47.0101 105,105v0c0,57.9899 -47.0101,105 -105,105z" fill="none"/><path d="M105,176.4c-39.43313,0 -71.4,-31.96687 -71.4,-71.4v0c0,-39.43313 31.96687,-71.4 71.4,-71.4v0c39.43313,0 71.4,31.96687 71.4,71.4v0c0,39.43313 -31.96687,71.4 -71.4,71.4z" fill="none"/><path d="M105,210c-57.9899,0 -105,-47.0101 -105,-105v0c0,-57.9899 47.0101,-105 105,-105v0c57.9899,0 105,47.0101 105,105v0c0,57.9899 -47.0101,105 -105,105z" fill="none"/><path d="M105,180.6c-41.75273,0 -75.6,-33.84727 -75.6,-75.6v0c0,-41.75273 33.84727,-75.6 75.6,-75.6v0c41.75273,0 75.6,33.84727 75.6,75.6v0c0,41.75273 -33.84727,75.6 -75.6,75.6z" fill="none"/><path d="M105,210c-57.9899,0 -105,-47.0101 -105,-105v0c0,-57.9899 47.0101,-105 105,-105v0c57.9899,0 105,47.0101 105,105v0c0,57.9899 -47.0101,105 -105,105z" fill="none"/><path d="M105,184.8c-44.07232,0 -79.8,-35.72768 -79.8,-79.8v0c0,-44.07232 35.72768,-79.8 79.8,-79.8h0c44.07232,0 79.8,35.72768 79.8,79.8v0c0,44.07232 -35.72768,79.8 -79.8,79.8z" fill="none"/><path d="M105,210c-57.9899,0 -105,-47.0101 -105,-105v0c0,-57.9899 47.0101,-105 105,-105v0c57.9899,0 105,47.0101 105,105v0c0,57.9899 -47.0101,105 -105,105z" fill="none"/><path d="M105,189c-46.39192,0 -84,-37.60808 -84,-84v0c0,-46.39192 37.60808,-84 84,-84v0c46.39192,0 84,37.60808 84,84v0c0,46.39192 -37.60808,84 -84,84z" fill="none"/><path d="M105,210c-57.9899,0 -105,-47.0101 -105,-105v0c0,-57.9899 47.0101,-105 105,-105v0c57.9899,0 105,47.0101 105,105v0c0,57.9899 -47.0101,105 -105,105z" fill="none"/><path d="M105,193.2c-48.71151,0 -88.2,-39.48849 -88.2,-88.2v0c0,-48.71151 39.48849,-88.2 88.2,-88.2h0c48.71151,0 88.2,39.48849 88.2,88.2v0c0,48.71151 -39.48849,88.2 -88.2,88.2z" fill="none"/><path d="M105,210c-57.9899,0 -105,-47.0101 -105,-105v0c0,-57.9899 47.0101,-105 105,-105v0c57.9899,0 105,47.0101 105,105v0c0,57.9899 -47.0101,105 -105,105z" fill="none"/><path d="M105,197.4c-51.03111,0 -92.4,-41.36889 -92.4,-92.4v0c0,-51.03111 41.36889,-92.4 92.4,-92.4v0c51.03111,0 92.4,41.36889 92.4,92.4v0c0,51.03111 -41.36889,92.4 -92.4,92.4z" fill="none"/><path d="M105,206.85c-56.2502,0 -101.85,-45.5998 -101.85,-101.85v0c0,-56.2502 45.5998,-101.85 101.85,-101.85v0c56.2502,0 101.85,45.5998 101.85,101.85v0c0,56.2502 -45.5998,101.85 -101.85,101.85z" fill="none"/><path d="M105,194.25c-49.29141,0 -89.25,-39.95859 -89.25,-89.25v0c0,-49.29141 39.95859,-89.25 89.25,-89.25v0c49.29141,0 89.25,39.95859 89.25,89.25v0c0,49.29141 -39.95859,89.25 -89.25,89.25z" fill="none"/><path d="M105,200.55c-52.77081,0 -95.55,-42.77919 -95.55,-95.55v0c0,-52.77081 42.77919,-95.55 95.55,-95.55h0c52.77081,0 95.55,42.77919 95.55,95.55v0c0,52.77081 -42.77919,95.55 -95.55,95.55z" fill="none"/><path d="M105,187.95c-45.81202,0 -82.95,-37.13798 -82.95,-82.95v0c0,-45.81202 37.13798,-82.95 82.95,-82.95v0c45.81202,0 82.95,37.13798 82.95,82.95v0c0,45.81202 -37.13798,82.95 -82.95,82.95z" fill="none"/><path d="M105,196.35c-50.45121,0 -91.35,-40.89879 -91.35,-91.35v0c0,-50.45121 40.89879,-91.35 91.35,-91.35v0c50.45121,0 91.35,40.89879 91.35,91.35v0c0,50.45121 -40.89879,91.35 -91.35,91.35z" fill="none"/><path d="M105,183.75c-43.49242,0 -78.75,-35.25758 -78.75,-78.75v0c0,-43.49242 35.25758,-78.75 78.75,-78.75v0c43.49242,0 78.75,35.25758 78.75,78.75v0c0,43.49242 -35.25758,78.75 -78.75,78.75z" fill="none"/><path d="M105,189c-46.39192,0 -84,-37.60808 -84,-84v0c0,-46.39192 37.60808,-84 84,-84v0c46.39192,0 84,37.60808 84,84v0c0,46.39192 -37.60808,84 -84,84z" fill="none"/><path d="M105,176.4c-39.43313,0 -71.4,-31.96687 -71.4,-71.4v0c0,-39.43313 31.96687,-71.4 71.4,-71.4v0c39.43313,0 71.4,31.96687 71.4,71.4v0c0,39.43313 -31.96687,71.4 -71.4,71.4z" fill="none"/><path d="M105,180.6c-41.75273,0 -75.6,-33.84727 -75.6,-75.6v0c0,-41.75273 33.84727,-75.6 75.6,-75.6v0c41.75273,0 75.6,33.84727 75.6,75.6v0c0,41.75273 -33.84727,75.6 -75.6,75.6z" fill="none"/><path d="M105,168c-34.79394,0 -63,-28.20606 -63,-63v0c0,-34.79394 28.20606,-63 63,-63v0c34.79394,0 63,28.20606 63,63v0c0,34.79394 -28.20606,63 -63,63z" fill="none"/><path d="M105,170.1c-35.95374,0 -65.1,-29.14626 -65.1,-65.1v0c0,-35.95374 29.14626,-65.1 65.1,-65.1v0c35.95374,0 65.1,29.14626 65.1,65.1v0c0,35.95374 -29.14626,65.1 -65.1,65.1z" fill="none"/><path d="M105,157.5c-28.99495,0 -52.5,-23.50505 -52.5,-52.5v0c0,-28.99495 23.50505,-52.5 52.5,-52.5v0c28.99495,0 52.5,23.50505 52.5,52.5v0c0,28.99495 -23.50505,52.5 -52.5,52.5z" fill="none"/><path d="M105,162.75c-31.89444,0 -57.75,-25.85556 -57.75,-57.75v0c0,-31.89444 25.85556,-57.75 57.75,-57.75v0c31.89444,0 57.75,25.85556 57.75,57.75v0c0,31.89444 -25.85556,57.75 -57.75,57.75z" fill="none"/><path d="M105,150.15c-24.93566,0 -45.15,-20.21434 -45.15,-45.15v0c0,-24.93566 20.21434,-45.15 45.15,-45.15v0c24.93566,0 45.15,20.21434 45.15,45.15v0c0,24.93566 -20.21434,45.15 -45.15,45.15z" fill="none"/><path d="M105,160.65c-30.73465,0 -55.65,-24.91535 -55.65,-55.65v0c0,-30.73465 24.91535,-55.65 55.65,-55.65v0c30.73465,0 55.65,24.91535 55.65,55.65v0c0,30.73465 -24.91535,55.65 -55.65,55.65z" fill="none"/><path d="M105,148.05c-23.77586,0 -43.05,-19.27414 -43.05,-43.05v0c0,-23.77586 19.27414,-43.05 43.05,-43.05h0c23.77586,0 43.05,19.27414 43.05,43.05v0c0,23.77586 -19.27414,43.05 -43.05,43.05z" fill="none"/><path d="M105,158.55c-29.57485,0 -53.55,-23.97515 -53.55,-53.55v0c0,-29.57485 23.97515,-53.55 53.55,-53.55h0c29.57485,0 53.55,23.97515 53.55,53.55v0c0,29.57485 -23.97515,53.55 -53.55,53.55z" fill="none"/><path d="M105,145.95c-22.61606,0 -40.95,-18.33394 -40.95,-40.95v0c0,-22.61606 18.33394,-40.95 40.95,-40.95v0c22.61606,0 40.95,18.33394 40.95,40.95v0c0,22.61606 -18.33394,40.95 -40.95,40.95z" fill="none"/><path d="M105,157.5c-28.99495,0 -52.5,-23.50505 -52.5,-52.5v0c0,-28.99495 23.50505,-52.5 52.5,-52.5v0c28.99495,0 52.5,23.50505 52.5,52.5v0c0,28.99495 -23.50505,52.5 -52.5,52.5z" fill="none"/><path d="M105,144.9c-22.03616,0 -39.9,-17.86384 -39.9,-39.9v0c0,-22.03616 17.86384,-39.9 39.9,-39.9h0c22.03616,0 39.9,17.86384 39.9,39.9v0c0,22.03616 -17.86384,39.9 -39.9,39.9z" fill="none"/><path d="M105,156.45c-28.41505,0 -51.45,-23.03495 -51.45,-51.45v0c0,-28.41505 23.03495,-51.45 51.45,-51.45h0c28.41505,0 51.45,23.03495 51.45,51.45v0c0,28.41505 -23.03495,51.45 -51.45,51.45z" fill="none"/><path d="M105,143.85c-21.45626,0 -38.85,-17.39374 -38.85,-38.85v0c0,-21.45626 17.39374,-38.85 38.85,-38.85h0c21.45626,0 38.85,17.39374 38.85,38.85v0c0,21.45626 -17.39374,38.85 -38.85,38.85z" fill="none"/><path d="M105,153.3c-26.67535,0 -48.3,-21.62465 -48.3,-48.3v0c0,-26.67535 21.62465,-48.3 48.3,-48.3h0c26.67535,0 48.3,21.62465 48.3,48.3v0c0,26.67535 -21.62465,48.3 -48.3,48.3z" fill="none"/><path d="M105,140.7c-19.71657,0 -35.7,-15.98343 -35.7,-35.7v0c0,-19.71657 15.98343,-35.7 35.7,-35.7v0c19.71657,0 35.7,15.98343 35.7,35.7v0c0,19.71657 -15.98343,35.7 -35.7,35.7z" fill="none"/><path d="M105,151.2c-25.51556,0 -46.2,-20.68444 -46.2,-46.2v0c0,-25.51556 20.68444,-46.2 46.2,-46.2h0c25.51556,0 46.2,20.68444 46.2,46.2v0c0,25.51556 -20.68444,46.2 -46.2,46.2z" fill="none"/><path d="M105,138.6c-18.55677,0 -33.6,-15.04323 -33.6,-33.6v0c0,-18.55677 15.04323,-33.6 33.6,-33.6h0c18.55677,0 33.6,15.04323 33.6,33.6v0c0,18.55677 -15.04323,33.6 -33.6,33.6z" fill="none"/><path d="M105,150.15c-24.93566,0 -45.15,-20.21434 -45.15,-45.15v0c0,-24.93566 20.21434,-45.15 45.15,-45.15v0c24.93566,0 45.15,20.21434 45.15,45.15v0c0,24.93566 -20.21434,45.15 -45.15,45.15z" fill="none"/><path d="M105,137.55c-17.97687,0 -32.55,-14.57313 -32.55,-32.55v0c0,-17.97687 14.57313,-32.55 32.55,-32.55h0c17.97687,0 32.55,14.57313 32.55,32.55v0c0,17.97687 -14.57313,32.55 -32.55,32.55z" fill="none"/><path d="M105,149.1c-24.35576,0 -44.1,-19.74424 -44.1,-44.1v0c0,-24.35576 19.74424,-44.1 44.1,-44.1v0c24.35576,0 44.1,19.74424 44.1,44.1v0c0,24.35576 -19.74424,44.1 -44.1,44.1z" fill="none"/><path d="M105,136.5c-17.39697,0 -31.5,-14.10303 -31.5,-31.5v0c0,-17.39697 14.10303,-31.5 31.5,-31.5v0c17.39697,0 31.5,14.10303 31.5,31.5v0c0,17.39697 -14.10303,31.5 -31.5,31.5z" fill="none"/><path d="M105,148.05c-23.77586,0 -43.05,-19.27414 -43.05,-43.05v0c0,-23.77586 19.27414,-43.05 43.05,-43.05h0c23.77586,0 43.05,19.27414 43.05,43.05v0c0,23.77586 -19.27414,43.05 -43.05,43.05z" fill="none"/><path d="M105,135.45c-16.81707,0 -30.45,-13.63293 -30.45,-30.45v0c0,-16.81707 13.63293,-30.45 30.45,-30.45v0c16.81707,0 30.45,13.63293 30.45,30.45v0c0,16.81707 -13.63293,30.45 -30.45,30.45z" fill="none"/><path d="M105,149.1c-24.35576,0 -44.1,-19.74424 -44.1,-44.1v0c0,-24.35576 19.74424,-44.1 44.1,-44.1v0c24.35576,0 44.1,19.74424 44.1,44.1v0c0,24.35576 -19.74424,44.1 -44.1,44.1z" fill="none"/><path d="M105,136.5c-17.39697,0 -31.5,-14.10303 -31.5,-31.5v0c0,-17.39697 14.10303,-31.5 31.5,-31.5v0c17.39697,0 31.5,14.10303 31.5,31.5v0c0,17.39697 -14.10303,31.5 -31.5,31.5z" fill="none"/><path d="M105,153.3c-26.67535,0 -48.3,-21.62465 -48.3,-48.3v0c0,-26.67535 21.62465,-48.3 48.3,-48.3h0c26.67535,0 48.3,21.62465 48.3,48.3v0c0,26.67535 -21.62465,48.3 -48.3,48.3z" fill="none"/><path d="M105,140.7c-19.71657,0 -35.7,-15.98343 -35.7,-35.7v0c0,-19.71657 15.98343,-35.7 35.7,-35.7v0c19.71657,0 35.7,15.98343 35.7,35.7v0c0,19.71657 -15.98343,35.7 -35.7,35.7z" fill="none"/><path d="M105,159.6c-30.15475,0 -54.6,-24.44525 -54.6,-54.6v0c0,-30.15475 24.44525,-54.6 54.6,-54.6v0c30.15475,0 54.6,24.44525 54.6,54.6v0c0,30.15475 -24.44525,54.6 -54.6,54.6z" fill="none"/><path d="M105,147c-23.19596,0 -42,-18.80404 -42,-42v0c0,-23.19596 18.80404,-42 42,-42v0c23.19596,0 42,18.80404 42,42v0c0,23.19596 -18.80404,42 -42,42z" fill="none"/><path d="M105,165.9c-33.63414,0 -60.9,-27.26586 -60.9,-60.9v0c0,-33.63414 27.26586,-60.9 60.9,-60.9v0c33.63414,0 60.9,27.26586 60.9,60.9v0c0,33.63414 -27.26586,60.9 -60.9,60.9z" fill="none"/><path d="M105,153.3c-26.67535,0 -48.3,-21.62465 -48.3,-48.3v0c0,-26.67535 21.62465,-48.3 48.3,-48.3h0c26.67535,0 48.3,21.62465 48.3,48.3v0c0,26.67535 -21.62465,48.3 -48.3,48.3z" fill="none"/><path d="M105,168c-34.79394,0 -63,-28.20606 -63,-63v0c0,-34.79394 28.20606,-63 63,-63v0c34.79394,0 63,28.20606 63,63v0c0,34.79394 -28.20606,63 -63,63z" fill="none"/><path d="M105,155.4c-27.83515,0 -50.4,-22.56485 -50.4,-50.4v0c0,-27.83515 22.56485,-50.4 50.4,-50.4v0c27.83515,0 50.4,22.56485 50.4,50.4v0c0,27.83515 -22.56485,50.4 -50.4,50.4z" fill="none"/><path d="M105,171.15c-36.53364,0 -66.15,-29.61636 -66.15,-66.15v0c0,-36.53364 29.61636,-66.15 66.15,-66.15v0c36.53364,0 66.15,29.61636 66.15,66.15v0c0,36.53364 -29.61636,66.15 -66.15,66.15z" fill="none"/><path d="M105,158.55c-29.57485,0 -53.55,-23.97515 -53.55,-53.55v0c0,-29.57485 23.97515,-53.55 53.55,-53.55v0c29.57485,0 53.55,23.97515 53.55,53.55v0c0,29.57485 -23.97515,53.55 -53.55,53.55z" fill="none"/><path d="M105,172.2c-37.11354,0 -67.2,-30.08646 -67.2,-67.2v0c0,-37.11354 30.08646,-67.2 67.2,-67.2h0c37.11354,0 67.2,30.08646 67.2,67.2v0c0,37.11354 -30.08646,67.2 -67.2,67.2z" fill="none"/><path d="M105,159.6c-30.15475,0 -54.6,-24.44525 -54.6,-54.6v0c0,-30.15475 24.44525,-54.6 54.6,-54.6v0c30.15475,0 54.6,24.44525 54.6,54.6v0c0,30.15475 -24.44525,54.6 -54.6,54.6z" fill="none"/><path d="M105,175.35c-38.85323,0 -70.35,-31.49677 -70.35,-70.35v0c0,-38.85323 31.49677,-70.35 70.35,-70.35v0c38.85323,0 70.35,31.49677 70.35,70.35v0c0,38.85323 -31.49677,70.35 -70.35,70.35z" fill="none"/><path d="M105,162.75c-31.89444,0 -57.75,-25.85556 -57.75,-57.75v0c0,-31.89444 25.85556,-57.75 57.75,-57.75v0c31.89444,0 57.75,25.85556 57.75,57.75v0c0,31.89444 -25.85556,57.75 -57.75,57.75z" fill="none"/><path d="M105,181.65c-42.33263,0 -76.65,-34.31737 -76.65,-76.65v0c0,-42.33263 34.31737,-76.65 76.65,-76.65v0c42.33263,0 76.65,34.31737 76.65,76.65v0c0,42.33263 -34.31737,76.65 -76.65,76.65z" fill="none"/><path d="M105,169.05c-35.37384,0 -64.05,-28.67616 -64.05,-64.05v0c0,-35.37384 28.67616,-64.05 64.05,-64.05v0c35.37384,0 64.05,28.67616 64.05,64.05v0c0,35.37384 -28.67616,64.05 -64.05,64.05z" fill="none"/><path d="M105,186.9c-45.23212,0 -81.9,-36.66788 -81.9,-81.9v0c0,-45.23212 36.66788,-81.9 81.9,-81.9v0c45.23212,0 81.9,36.66788 81.9,81.9v0c0,45.23212 -36.66788,81.9 -81.9,81.9z" fill="none"/><path d="M105,174.3c-38.27333,0 -69.3,-31.02667 -69.3,-69.3v0c0,-38.27333 31.02667,-69.3 69.3,-69.3v0c38.27333,0 69.3,31.02667 69.3,69.3v0c0,38.27333 -31.02667,69.3 -69.3,69.3z" fill="none"/><path d="M105,189c-46.39192,0 -84,-37.60808 -84,-84v0c0,-46.39192 37.60808,-84 84,-84v0c46.39192,0 84,37.60808 84,84v0c0,46.39192 -37.60808,84 -84,84z" fill="none"/><path d="M105,176.4c-39.43313,0 -71.4,-31.96687 -71.4,-71.4v0c0,-39.43313 31.96687,-71.4 71.4,-71.4v0c39.43313,0 71.4,31.96687 71.4,71.4v0c0,39.43313 -31.96687,71.4 -71.4,71.4z" fill="none"/><path d="M105,190.05c-46.97182,0 -85.05,-38.07818 -85.05,-85.05v0c0,-46.97182 38.07818,-85.05 85.05,-85.05h0c46.97182,0 85.05,38.07818 85.05,85.05v0c0,46.97182 -38.07818,85.05 -85.05,85.05z" fill="none"/><path d="M105,177.45c-40.01303,0 -72.45,-32.43697 -72.45,-72.45v0c0,-40.01303 32.43697,-72.45 72.45,-72.45v0c40.01303,0 72.45,32.43697 72.45,72.45v0c0,40.01303 -32.43697,72.45 -72.45,72.45z" fill="none"/><path d="M105,191.1c-47.55172,0 -86.1,-38.54828 -86.1,-86.1v0c0,-47.55172 38.54828,-86.1 86.1,-86.1v0c47.55172,0 86.1,38.54828 86.1,86.1v0c0,47.55172 -38.54828,86.1 -86.1,86.1z" fill="none"/><path d="M105,178.5c-40.59293,0 -73.5,-32.90707 -73.5,-73.5v0c0,-40.59293 32.90707,-73.5 73.5,-73.5v0c40.59293,0 73.5,32.90707 73.5,73.5v0c0,40.59293 -32.90707,73.5 -73.5,73.5z" fill="none"/><path d="M105,192.15c-48.13162,0 -87.15,-39.01838 -87.15,-87.15v0c0,-48.13162 39.01838,-87.15 87.15,-87.15v0c48.13162,0 87.15,39.01838 87.15,87.15v0c0,48.13162 -39.01838,87.15 -87.15,87.15z" fill="none"/><path d="M105,179.55c-41.17283,0 -74.55,-33.37717 -74.55,-74.55v0c0,-41.17283 33.37717,-74.55 74.55,-74.55v0c41.17283,0 74.55,33.37717 74.55,74.55v0c0,41.17283 -33.37717,74.55 -74.55,74.55z" fill="none"/><path d="M105,193.2c-48.71151,0 -88.2,-39.48849 -88.2,-88.2v0c0,-48.71151 39.48849,-88.2 88.2,-88.2h0c48.71151,0 88.2,39.48849 88.2,88.2v0c0,48.71151 -39.48849,88.2 -88.2,88.2z" fill="none"/><path d="M105,180.6c-41.75273,0 -75.6,-33.84727 -75.6,-75.6v0c0,-41.75273 33.84727,-75.6 75.6,-75.6v0c41.75273,0 75.6,33.84727 75.6,75.6v0c0,41.75273 -33.84727,75.6 -75.6,75.6z" fill="none"/><path d="M105,194.25c-49.29141,0 -89.25,-39.95859 -89.25,-89.25v0c0,-49.29141 39.95859,-89.25 89.25,-89.25v0c49.29141,0 89.25,39.95859 89.25,89.25v0c0,49.29141 -39.95859,89.25 -89.25,89.25z" fill="none"/><path d="M105,181.65c-42.33263,0 -76.65,-34.31737 -76.65,-76.65v0c0,-42.33263 34.31737,-76.65 76.65,-76.65v0c42.33263,0 76.65,34.31737 76.65,76.65v0c0,42.33263 -34.31737,76.65 -76.65,76.65z" fill="none"/><path d="M105,197.4c-51.03111,0 -92.4,-41.36889 -92.4,-92.4v0c0,-51.03111 41.36889,-92.4 92.4,-92.4v0c51.03111,0 92.4,41.36889 92.4,92.4v0c0,51.03111 -41.36889,92.4 -92.4,92.4z" fill="none"/><path d="M105,184.8c-44.07232,0 -79.8,-35.72768 -79.8,-79.8v0c0,-44.07232 35.72768,-79.8 79.8,-79.8v0c44.07232,0 79.8,35.72768 79.8,79.8v0c0,44.07232 -35.72768,79.8 -79.8,79.8z" fill="none"/><path d="M105,198.45c-51.61101,0 -93.45,-41.83899 -93.45,-93.45v0c0,-51.61101 41.83899,-93.45 93.45,-93.45h0c51.61101,0 93.45,41.83899 93.45,93.45v0c0,51.61101 -41.83899,93.45 -93.45,93.45z" fill="none"/><path d="M105,185.85c-44.65222,0 -80.85,-36.19778 -80.85,-80.85v0c0,-44.65222 36.19778,-80.85 80.85,-80.85v0c44.65222,0 80.85,36.19778 80.85,80.85v0c0,44.65222 -36.19778,80.85 -80.85,80.85z" fill="none"/><path d="M105,199.5c-52.19091,0 -94.5,-42.30909 -94.5,-94.5v0c0,-52.19091 42.30909,-94.5 94.5,-94.5v0c52.19091,0 94.5,42.30909 94.5,94.5v0c0,52.19091 -42.30909,94.5 -94.5,94.5z" fill="none"/><path d="M105,186.9c-45.23212,0 -81.9,-36.66788 -81.9,-81.9v0c0,-45.23212 36.66788,-81.9 81.9,-81.9v0c45.23212,0 81.9,36.66788 81.9,81.9v0c0,45.23212 -36.66788,81.9 -81.9,81.9z" fill="none"/><path d="M105,199.5c-52.19091,0 -94.5,-42.30909 -94.5,-94.5v0c0,-52.19091 42.30909,-94.5 94.5,-94.5v0c52.19091,0 94.5,42.30909 94.5,94.5v0c0,52.19091 -42.30909,94.5 -94.5,94.5z" fill="none"/><path d="M105,191.1c-47.55172,0 -86.1,-38.54828 -86.1,-86.1v0c0,-47.55172 38.54828,-86.1 86.1,-86.1v0c47.55172,0 86.1,38.54828 86.1,86.1v0c0,47.55172 -38.54828,86.1 -86.1,86.1z" fill="none"/><path d="M105,199.5c-52.19091,0 -94.5,-42.30909 -94.5,-94.5v0c0,-52.19091 42.30909,-94.5 94.5,-94.5v0c52.19091,0 94.5,42.30909 94.5,94.5v0c0,52.19091 -42.30909,94.5 -94.5,94.5z" fill="none"/><path d="M105,195.3c-49.87131,0 -90.3,-40.42869 -90.3,-90.3v0c0,-49.87131 40.42869,-90.3 90.3,-90.3h0c49.87131,0 90.3,40.42869 90.3,90.3v0c0,49.87131 -40.42869,90.3 -90.3,90.3z" fill="none"/><path d="M105,199.5c-52.19091,0 -94.5,-42.30909 -94.5,-94.5v0c0,-52.19091 42.30909,-94.5 94.5,-94.5v0c52.19091,0 94.5,42.30909 94.5,94.5v0c0,52.19091 -42.30909,94.5 -94.5,94.5z" fill="none"/><path d="M105,191.1c-47.55172,0 -86.1,-38.54828 -86.1,-86.1v0c0,-47.55172 38.54828,-86.1 86.1,-86.1v0c47.55172,0 86.1,38.54828 86.1,86.1v0c0,47.55172 -38.54828,86.1 -86.1,86.1z" fill="none"/><path d="M105,199.5c-52.19091,0 -94.5,-42.30909 -94.5,-94.5v0c0,-52.19091 42.30909,-94.5 94.5,-94.5v0c52.19091,0 94.5,42.30909 94.5,94.5v0c0,52.19091 -42.30909,94.5 -94.5,94.5z" fill="none"/><path d="M105,157.5c-28.99495,0 -52.5,-23.50505 -52.5,-52.5v0c0,-28.99495 23.50505,-52.5 52.5,-52.5v0c28.99495,0 52.5,23.50505 52.5,52.5v0c0,28.99495 -23.50505,52.5 -52.5,52.5z" fill="none"/><path d="M105,199.5c-52.19091,0 -94.5,-42.30909 -94.5,-94.5v0c0,-52.19091 42.30909,-94.5 94.5,-94.5v0c52.19091,0 94.5,42.30909 94.5,94.5v0c0,52.19091 -42.30909,94.5 -94.5,94.5z" fill="none"/><path d="M105,161.7c-31.31455,0 -56.7,-25.38545 -56.7,-56.7v0c0,-31.31455 25.38545,-56.7 56.7,-56.7v0c31.31455,0 56.7,25.38545 56.7,56.7v0c0,31.31455 -25.38545,56.7 -56.7,56.7z" fill="none"/><path d="M105,199.5c-52.19091,0 -94.5,-42.30909 -94.5,-94.5v0c0,-52.19091 42.30909,-94.5 94.5,-94.5v0c52.19091,0 94.5,42.30909 94.5,94.5v0c0,52.19091 -42.30909,94.5 -94.5,94.5z" fill="none"/><path d="M105,174.3c-38.27333,0 -69.3,-31.02667 -69.3,-69.3v0c0,-38.27333 31.02667,-69.3 69.3,-69.3h0c38.27333,0 69.3,31.02667 69.3,69.3v0c0,38.27333 -31.02667,69.3 -69.3,69.3z" fill="none"/><path d="M105,199.5c-52.19091,0 -94.5,-42.30909 -94.5,-94.5v0c0,-52.19091 42.30909,-94.5 94.5,-94.5v0c52.19091,0 94.5,42.30909 94.5,94.5v0c0,52.19091 -42.30909,94.5 -94.5,94.5z" fill="none"/><path d="M105,182.7c-42.91253,0 -77.7,-34.78747 -77.7,-77.7v0c0,-42.91253 34.78747,-77.7 77.7,-77.7h0c42.91253,0 77.7,34.78747 77.7,77.7v0c0,42.91253 -34.78747,77.7 -77.7,77.7z" fill="none"/><path d="M105,199.5c-52.19091,0 -94.5,-42.30909 -94.5,-94.5v0c0,-52.19091 42.30909,-94.5 94.5,-94.5v0c52.19091,0 94.5,42.30909 94.5,94.5v0c0,52.19091 -42.30909,94.5 -94.5,94.5z" fill="none"/><path d="M105,191.1c-47.55172,0 -86.1,-38.54828 -86.1,-86.1v0c0,-47.55172 38.54828,-86.1 86.1,-86.1v0c47.55172,0 86.1,38.54828 86.1,86.1v0c0,47.55172 -38.54828,86.1 -86.1,86.1z" fill="none"/><path d="M105,199.5c-52.19091,0 -94.5,-42.30909 -94.5,-94.5v0c0,-52.19091 42.30909,-94.5 94.5,-94.5v0c52.19091,0 94.5,42.30909 94.5,94.5v0c0,52.19091 -42.30909,94.5 -94.5,94.5z" fill="none"/><path d="M105,195.3c-49.87131,0 -90.3,-40.42869 -90.3,-90.3v0c0,-49.87131 40.42869,-90.3 90.3,-90.3h0c49.87131,0 90.3,40.42869 90.3,90.3v0c0,49.87131 -40.42869,90.3 -90.3,90.3z" fill="none"/><path d="M105,199.5c-52.19091,0 -94.5,-42.30909 -94.5,-94.5v0c0,-52.19091 42.30909,-94.5 94.5,-94.5v0c52.19091,0 94.5,42.30909 94.5,94.5v0c0,52.19091 -42.30909,94.5 -94.5,94.5z" fill="none"/><path d="M105,195.3c-49.87131,0 -90.3,-40.42869 -90.3,-90.3v0c0,-49.87131 40.42869,-90.3 90.3,-90.3h0c49.87131,0 90.3,40.42869 90.3,90.3v0c0,49.87131 -40.42869,90.3 -90.3,90.3z" fill="none"/><path d="M105,199.5c-52.19091,0 -94.5,-42.30909 -94.5,-94.5v0c0,-52.19091 42.30909,-94.5 94.5,-94.5v0c52.19091,0 94.5,42.30909 94.5,94.5v0c0,52.19091 -42.30909,94.5 -94.5,94.5z" fill="none"/><path d="M105,195.3c-49.87131,0 -90.3,-40.42869 -90.3,-90.3v0c0,-49.87131 40.42869,-90.3 90.3,-90.3h0c49.87131,0 90.3,40.42869 90.3,90.3v0c0,49.87131 -40.42869,90.3 -90.3,90.3z" fill="none"/><path d="M105,199.5c-52.19091,0 -94.5,-42.30909 -94.5,-94.5v0c0,-52.19091 42.30909,-94.5 94.5,-94.5v0c52.19091,0 94.5,42.30909 94.5,94.5v0c0,52.19091 -42.30909,94.5 -94.5,94.5z" fill="none"/><path d="M105,195.3c-49.87131,0 -90.3,-40.42869 -90.3,-90.3v0c0,-49.87131 40.42869,-90.3 90.3,-90.3h0c49.87131,0 90.3,40.42869 90.3,90.3v0c0,49.87131 -40.42869,90.3 -90.3,90.3z" fill="none"/><path d="M105,199.5c-52.19091,0 -94.5,-42.30909 -94.5,-94.5v0c0,-52.19091 42.30909,-94.5 94.5,-94.5v0c52.19091,0 94.5,42.30909 94.5,94.5v0c0,52.19091 -42.30909,94.5 -94.5,94.5z" fill="none"/><path d="M105,195.3c-49.87131,0 -90.3,-40.42869 -90.3,-90.3v0c0,-49.87131 40.42869,-90.3 90.3,-90.3h0c49.87131,0 90.3,40.42869 90.3,90.3v0c0,49.87131 -40.42869,90.3 -90.3,90.3z" fill="none"/><path d="M105,199.5c-52.19091,0 -94.5,-42.30909 -94.5,-94.5v0c0,-52.19091 42.30909,-94.5 94.5,-94.5v0c52.19091,0 94.5,42.30909 94.5,94.5v0c0,52.19091 -42.30909,94.5 -94.5,94.5z" fill="none"/><path d="M105,195.3c-49.87131,0 -90.3,-40.42869 -90.3,-90.3v0c0,-49.87131 40.42869,-90.3 90.3,-90.3h0c49.87131,0 90.3,40.42869 90.3,90.3v0c0,49.87131 -40.42869,90.3 -90.3,90.3z" fill="none"/><path d="M105,199.5c-52.19091,0 -94.5,-42.30909 -94.5,-94.5v0c0,-52.19091 42.30909,-94.5 94.5,-94.5v0c52.19091,0 94.5,42.30909 94.5,94.5v0c0,52.19091 -42.30909,94.5 -94.5,94.5z" fill="none"/><path d="M105,195.3c-49.87131,0 -90.3,-40.42869 -90.3,-90.3v0c0,-49.87131 40.42869,-90.3 90.3,-90.3h0c49.87131,0 90.3,40.42869 90.3,90.3v0c0,49.87131 -40.42869,90.3 -90.3,90.3z" fill="none"/><path d="M105,199.5c-52.19091,0 -94.5,-42.30909 -94.5,-94.5v0c0,-52.19091 42.30909,-94.5 94.5,-94.5v0c52.19091,0 94.5,42.30909 94.5,94.5v0c0,52.19091 -42.30909,94.5 -94.5,94.5z" fill="none"/><path d="M105,195.3c-49.87131,0 -90.3,-40.42869 -90.3,-90.3v0c0,-49.87131 40.42869,-90.3 90.3,-90.3h0c49.87131,0 90.3,40.42869 90.3,90.3v0c0,49.87131 -40.42869,90.3 -90.3,90.3z" fill="none"/><path d="M105,199.5c-52.19091,0 -94.5,-42.30909 -94.5,-94.5v0c0,-52.19091 42.30909,-94.5 94.5,-94.5v0c52.19091,0 94.5,42.30909 94.5,94.5v0c0,52.19091 -42.30909,94.5 -94.5,94.5z" fill="none"/><path d="M105,195.3c-49.87131,0 -90.3,-40.42869 -90.3,-90.3v0c0,-49.87131 40.42869,-90.3 90.3,-90.3h0c49.87131,0 90.3,40.42869 90.3,90.3v0c0,49.87131 -40.42869,90.3 -90.3,90.3z" fill="none"/><path d="M105,199.5c-52.19091,0 -94.5,-42.30909 -94.5,-94.5v0c0,-52.19091 42.30909,-94.5 94.5,-94.5v0c52.19091,0 94.5,42.30909 94.5,94.5v0c0,52.19091 -42.30909,94.5 -94.5,94.5z" fill="none"/><path d="M105,195.3c-49.87131,0 -90.3,-40.42869 -90.3,-90.3v0c0,-49.87131 40.42869,-90.3 90.3,-90.3h0c49.87131,0 90.3,40.42869 90.3,90.3v0c0,49.87131 -40.42869,90.3 -90.3,90.3z" fill="none"/><path d="M105,199.5c-52.19091,0 -94.5,-42.30909 -94.5,-94.5v0c0,-52.19091 42.30909,-94.5 94.5,-94.5v0c52.19091,0 94.5,42.30909 94.5,94.5v0c0,52.19091 -42.30909,94.5 -94.5,94.5z" fill="none"/><path d="M105,195.3c-49.87131,0 -90.3,-40.42869 -90.3,-90.3v0c0,-49.87131 40.42869,-90.3 90.3,-90.3h0c49.87131,0 90.3,40.42869 90.3,90.3v0c0,49.87131 -40.42869,90.3 -90.3,90.3z" fill="none"/><path d="M105,199.5c-52.19091,0 -94.5,-42.30909 -94.5,-94.5v0c0,-52.19091 42.30909,-94.5 94.5,-94.5v0c52.19091,0 94.5,42.30909 94.5,94.5v0c0,52.19091 -42.30909,94.5 -94.5,94.5z" fill="none"/><path d="M105,195.3c-49.87131,0 -90.3,-40.42869 -90.3,-90.3v0c0,-49.87131 40.42869,-90.3 90.3,-90.3h0c49.87131,0 90.3,40.42869 90.3,90.3v0c0,49.87131 -40.42869,90.3 -90.3,90.3z" fill="none"/><path d="M105,199.5c-52.19091,0 -94.5,-42.30909 -94.5,-94.5v0c0,-52.19091 42.30909,-94.5 94.5,-94.5v0c52.19091,0 94.5,42.30909 94.5,94.5v0c0,52.19091 -42.30909,94.5 -94.5,94.5z" fill="none"/><path d="M105,195.3c-49.87131,0 -90.3,-40.42869 -90.3,-90.3v0c0,-49.87131 40.42869,-90.3 90.3,-90.3h0c49.87131,0 90.3,40.42869 90.3,90.3v0c0,49.87131 -40.42869,90.3 -90.3,90.3z" fill="none"/><path d="M105,199.5c-52.19091,0 -94.5,-42.30909 -94.5,-94.5v0c0,-52.19091 42.30909,-94.5 94.5,-94.5v0c52.19091,0 94.5,42.30909 94.5,94.5v0c0,52.19091 -42.30909,94.5 -94.5,94.5z" fill="none"/><path d="M105,195.3c-49.87131,0 -90.3,-40.42869 -90.3,-90.3v0c0,-49.87131 40.42869,-90.3 90.3,-90.3h0c49.87131,0 90.3,40.42869 90.3,90.3v0c0,49.87131 -40.42869,90.3 -90.3,90.3z" fill="none"/><path d="M105,199.5c-52.19091,0 -94.5,-42.30909 -94.5,-94.5v0c0,-52.19091 42.30909,-94.5 94.5,-94.5v0c52.19091,0 94.5,42.30909 94.5,94.5v0c0,52.19091 -42.30909,94.5 -94.5,94.5z" fill="none"/><path d="M105,195.3c-49.87131,0 -90.3,-40.42869 -90.3,-90.3v0c0,-49.87131 40.42869,-90.3 90.3,-90.3h0c49.87131,0 90.3,40.42869 90.3,90.3v0c0,49.87131 -40.42869,90.3 -90.3,90.3z" fill="none"/><path d="M105,199.5c-52.19091,0 -94.5,-42.30909 -94.5,-94.5v0c0,-52.19091 42.30909,-94.5 94.5,-94.5v0c52.19091,0 94.5,42.30909 94.5,94.5v0c0,52.19091 -42.30909,94.5 -94.5,94.5z" fill="none"/><path d="M105,195.3c-49.87131,0 -90.3,-40.42869 -90.3,-90.3v0c0,-49.87131 40.42869,-90.3 90.3,-90.3h0c49.87131,0 90.3,40.42869 90.3,90.3v0c0,49.87131 -40.42869,90.3 -90.3,90.3z" fill="none"/><path d="M105,199.5c-52.19091,0 -94.5,-42.30909 -94.5,-94.5v0c0,-52.19091 42.30909,-94.5 94.5,-94.5v0c52.19091,0 94.5,42.30909 94.5,94.5v0c0,52.19091 -42.30909,94.5 -94.5,94.5z" fill="none"/><path d="M105,195.3c-49.87131,0 -90.3,-40.42869 -90.3,-90.3v0c0,-49.87131 40.42869,-90.3 90.3,-90.3h0c49.87131,0 90.3,40.42869 90.3,90.3v0c0,49.87131 -40.42869,90.3 -90.3,90.3z" fill="none"/><path d="M105,189c-46.39192,0 -84,-37.60808 -84,-84v0c0,-46.39192 37.60808,-84 84,-84v0c46.39192,0 84,37.60808 84,84v0c0,46.39192 -37.60808,84 -84,84z" fill="none"/><path d="M105,184.8c-44.07232,0 -79.8,-35.72768 -79.8,-79.8v0c0,-44.07232 35.72768,-79.8 79.8,-79.8h0c44.07232,0 79.8,35.72768 79.8,79.8v0c0,44.07232 -35.72768,79.8 -79.8,79.8z" fill="none"/><path d="M105,186.9c-45.23212,0 -81.9,-36.66788 -81.9,-81.9v0c0,-45.23212 36.66788,-81.9 81.9,-81.9v0c45.23212,0 81.9,36.66788 81.9,81.9v0c0,45.23212 -36.66788,81.9 -81.9,81.9z" fill="none"/><path d="M105,182.7c-42.91253,0 -77.7,-34.78747 -77.7,-77.7v0c0,-42.91253 34.78747,-77.7 77.7,-77.7h0c42.91253,0 77.7,34.78747 77.7,77.7v0c0,42.91253 -34.78747,77.7 -77.7,77.7z" fill="none"/><path d="M105,174.3c-38.27333,0 -69.3,-31.02667 -69.3,-69.3v0c0,-38.27333 31.02667,-69.3 69.3,-69.3h0c38.27333,0 69.3,31.02667 69.3,69.3v0c0,38.27333 -31.02667,69.3 -69.3,69.3z" fill="none"/><path d="M105,170.1c-35.95374,0 -65.1,-29.14626 -65.1,-65.1v0c0,-35.95374 29.14626,-65.1 65.1,-65.1v0c35.95374,0 65.1,29.14626 65.1,65.1v0c0,35.95374 -29.14626,65.1 -65.1,65.1z" fill="none"/><path d="M105,175.35c-38.85323,0 -70.35,-31.49677 -70.35,-70.35v0c0,-38.85323 31.49677,-70.35 70.35,-70.35v0c38.85323,0 70.35,31.49677 70.35,70.35v0c0,38.85323 -31.49677,70.35 -70.35,70.35z" fill="none"/><path d="M105,171.15c-36.53364,0 -66.15,-29.61636 -66.15,-66.15v0c0,-36.53364 29.61636,-66.15 66.15,-66.15h0c36.53364,0 66.15,29.61636 66.15,66.15v0c0,36.53364 -29.61636,66.15 -66.15,66.15z" fill="none"/><path d="M105,193.2c-48.71151,0 -88.2,-39.48849 -88.2,-88.2v0c0,-48.71151 39.48849,-88.2 88.2,-88.2h0c48.71151,0 88.2,39.48849 88.2,88.2v0c0,48.71151 -39.48849,88.2 -88.2,88.2z" fill="none"/><path d="M105,189c-46.39192,0 -84,-37.60808 -84,-84v0c0,-46.39192 37.60808,-84 84,-84v0c46.39192,0 84,37.60808 84,84v0c0,46.39192 -37.60808,84 -84,84z" fill="none"/><path d="M105,194.25c-49.29141,0 -89.25,-39.95859 -89.25,-89.25v0c0,-49.29141 39.95859,-89.25 89.25,-89.25v0c49.29141,0 89.25,39.95859 89.25,89.25v0c0,49.29141 -39.95859,89.25 -89.25,89.25z" fill="none"/><path d="M105,190.05c-46.97182,0 -85.05,-38.07818 -85.05,-85.05v0c0,-46.97182 38.07818,-85.05 85.05,-85.05h0c46.97182,0 85.05,38.07818 85.05,85.05v0c0,46.97182 -38.07818,85.05 -85.05,85.05z" fill="none"/><path d="M105,205.8c-55.6703,0 -100.8,-45.1297 -100.8,-100.8v0c0,-55.6703 45.1297,-100.8 100.8,-100.8h0c55.6703,0 100.8,45.1297 100.8,100.8v0c0,55.6703 -45.1297,100.8 -100.8,100.8z" fill="none"/><path d="M105,201.6c-53.35071,0 -96.6,-43.24929 -96.6,-96.6v0c0,-53.35071 43.24929,-96.6 96.6,-96.6v0c53.35071,0 96.6,43.24929 96.6,96.6v0c0,53.35071 -43.24929,96.6 -96.6,96.6z" fill="none"/><path d="M105,206.85c-56.2502,0 -101.85,-45.5998 -101.85,-101.85v0c0,-56.2502 45.5998,-101.85 101.85,-101.85v0c56.2502,0 101.85,45.5998 101.85,101.85v0c0,56.2502 -45.5998,101.85 -101.85,101.85z" fill="none"/><path d="M105,202.65c-53.93061,0 -97.65,-43.71939 -97.65,-97.65v0c0,-53.93061 43.71939,-97.65 97.65,-97.65h0c53.93061,0 97.65,43.71939 97.65,97.65v0c0,53.93061 -43.71939,97.65 -97.65,97.65z" fill="none"/><path d="M105,204.75c-55.0904,0 -99.75,-44.6596 -99.75,-99.75v0c0,-55.0904 44.6596,-99.75 99.75,-99.75v0c55.0904,0 99.75,44.6596 99.75,99.75v0c0,55.0904 -44.6596,99.75 -99.75,99.75z" fill="none"/><path d="M105,200.55c-52.77081,0 -95.55,-42.77919 -95.55,-95.55v0c0,-52.77081 42.77919,-95.55 95.55,-95.55h0c52.77081,0 95.55,42.77919 95.55,95.55v0c0,52.77081 -42.77919,95.55 -95.55,95.55z" fill="none"/><path d="M105,200.55c-52.77081,0 -95.55,-42.77919 -95.55,-95.55v0c0,-52.77081 42.77919,-95.55 95.55,-95.55h0c52.77081,0 95.55,42.77919 95.55,95.55v0c0,52.77081 -42.77919,95.55 -95.55,95.55z" fill="none"/><path d="M105,196.35c-50.45121,0 -91.35,-40.89879 -91.35,-91.35v0c0,-50.45121 40.89879,-91.35 91.35,-91.35v0c50.45121,0 91.35,40.89879 91.35,91.35v0c0,50.45121 -40.89879,91.35 -91.35,91.35z" fill="none"/><path d="M105,201.6c-53.35071,0 -96.6,-43.24929 -96.6,-96.6v0c0,-53.35071 43.24929,-96.6 96.6,-96.6v0c53.35071,0 96.6,43.24929 96.6,96.6v0c0,53.35071 -43.24929,96.6 -96.6,96.6z" fill="none"/><path d="M105,197.4c-51.03111,0 -92.4,-41.36889 -92.4,-92.4v0c0,-51.03111 41.36889,-92.4 92.4,-92.4h0c51.03111,0 92.4,41.36889 92.4,92.4v0c0,51.03111 -41.36889,92.4 -92.4,92.4z" fill="none"/><path d="M105,204.75c-55.0904,0 -99.75,-44.6596 -99.75,-99.75v0c0,-55.0904 44.6596,-99.75 99.75,-99.75v0c55.0904,0 99.75,44.6596 99.75,99.75v0c0,55.0904 -44.6596,99.75 -99.75,99.75z" fill="none"/><path d="M105,200.55c-52.77081,0 -95.55,-42.77919 -95.55,-95.55v0c0,-52.77081 42.77919,-95.55 95.55,-95.55h0c52.77081,0 95.55,42.77919 95.55,95.55v0c0,52.77081 -42.77919,95.55 -95.55,95.55z" fill="none"/><path d="M105,203.7c-54.5105,0 -98.7,-44.1895 -98.7,-98.7v0c0,-54.5105 44.1895,-98.7 98.7,-98.7h0c54.5105,0 98.7,44.1895 98.7,98.7v0c0,54.5105 -44.1895,98.7 -98.7,98.7z" fill="none"/><path d="M105,199.5c-52.19091,0 -94.5,-42.30909 -94.5,-94.5v0c0,-52.19091 42.30909,-94.5 94.5,-94.5v0c52.19091,0 94.5,42.30909 94.5,94.5v0c0,52.19091 -42.30909,94.5 -94.5,94.5z" fill="none"/><path d="M105,200.55c-52.77081,0 -95.55,-42.77919 -95.55,-95.55v0c0,-52.77081 42.77919,-95.55 95.55,-95.55h0c52.77081,0 95.55,42.77919 95.55,95.55v0c0,52.77081 -42.77919,95.55 -95.55,95.55z" fill="none"/><path d="M105,196.35c-50.45121,0 -91.35,-40.89879 -91.35,-91.35v0c0,-50.45121 40.89879,-91.35 91.35,-91.35v0c50.45121,0 91.35,40.89879 91.35,91.35v0c0,50.45121 -40.89879,91.35 -91.35,91.35z" fill="none"/><path d="M105,198.45c-51.61101,0 -93.45,-41.83899 -93.45,-93.45v0c0,-51.61101 41.83899,-93.45 93.45,-93.45h0c51.61101,0 93.45,41.83899 93.45,93.45v0c0,51.61101 -41.83899,93.45 -93.45,93.45z" fill="none"/><path d="M105,194.25c-49.29141,0 -89.25,-39.95859 -89.25,-89.25v0c0,-49.29141 39.95859,-89.25 89.25,-89.25v0c49.29141,0 89.25,39.95859 89.25,89.25v0c0,49.29141 -39.95859,89.25 -89.25,89.25z" fill="none"/><path d="M105,198.45c-51.61101,0 -93.45,-41.83899 -93.45,-93.45v0c0,-51.61101 41.83899,-93.45 93.45,-93.45h0c51.61101,0 93.45,41.83899 93.45,93.45v0c0,51.61101 -41.83899,93.45 -93.45,93.45z" fill="none"/><path d="M105,194.25c-49.29141,0 -89.25,-39.95859 -89.25,-89.25v0c0,-49.29141 39.95859,-89.25 89.25,-89.25v0c49.29141,0 89.25,39.95859 89.25,89.25v0c0,49.29141 -39.95859,89.25 -89.25,89.25z" fill="none"/><path d="M105,198.45c-51.61101,0 -93.45,-41.83899 -93.45,-93.45v0c0,-51.61101 41.83899,-93.45 93.45,-93.45h0c51.61101,0 93.45,41.83899 93.45,93.45v0c0,51.61101 -41.83899,93.45 -93.45,93.45z" fill="none"/><path d="M105,194.25c-49.29141,0 -89.25,-39.95859 -89.25,-89.25v0c0,-49.29141 39.95859,-89.25 89.25,-89.25v0c49.29141,0 89.25,39.95859 89.25,89.25v0c0,49.29141 -39.95859,89.25 -89.25,89.25z" fill="none"/><path d="M105,198.45c-51.61101,0 -93.45,-41.83899 -93.45,-93.45v0c0,-51.61101 41.83899,-93.45 93.45,-93.45h0c51.61101,0 93.45,41.83899 93.45,93.45v0c0,51.61101 -41.83899,93.45 -93.45,93.45z" fill="none"/><path d="M105,194.25c-49.29141,0 -89.25,-39.95859 -89.25,-89.25v0c0,-49.29141 39.95859,-89.25 89.25,-89.25v0c49.29141,0 89.25,39.95859 89.25,89.25v0c0,49.29141 -39.95859,89.25 -89.25,89.25z" fill="none"/><path d="M105,198.45c-51.61101,0 -93.45,-41.83899 -93.45,-93.45v0c0,-51.61101 41.83899,-93.45 93.45,-93.45h0c51.61101,0 93.45,41.83899 93.45,93.45v0c0,51.61101 -41.83899,93.45 -93.45,93.45z" fill="none"/><path d="M105,194.25c-49.29141,0 -89.25,-39.95859 -89.25,-89.25v0c0,-49.29141 39.95859,-89.25 89.25,-89.25v0c49.29141,0 89.25,39.95859 89.25,89.25v0c0,49.29141 -39.95859,89.25 -89.25,89.25z" fill="none"/><path d="M105,198.45c-51.61101,0 -93.45,-41.83899 -93.45,-93.45v0c0,-51.61101 41.83899,-93.45 93.45,-93.45h0c51.61101,0 93.45,41.83899 93.45,93.45v0c0,51.61101 -41.83899,93.45 -93.45,93.45z" fill="none"/><path d="M105,194.25c-49.29141,0 -89.25,-39.95859 -89.25,-89.25v0c0,-49.29141 39.95859,-89.25 89.25,-89.25v0c49.29141,0 89.25,39.95859 89.25,89.25v0c0,49.29141 -39.95859,89.25 -89.25,89.25z" fill="none"/><path d="M105,198.45c-51.61101,0 -93.45,-41.83899 -93.45,-93.45v0c0,-51.61101 41.83899,-93.45 93.45,-93.45h0c51.61101,0 93.45,41.83899 93.45,93.45v0c0,51.61101 -41.83899,93.45 -93.45,93.45z" fill="none"/><path d="M105,194.25c-49.29141,0 -89.25,-39.95859 -89.25,-89.25v0c0,-49.29141 39.95859,-89.25 89.25,-89.25v0c49.29141,0 89.25,39.95859 89.25,89.25v0c0,49.29141 -39.95859,89.25 -89.25,89.25z" fill="none"/><path d="M105,198.45c-51.61101,0 -93.45,-41.83899 -93.45,-93.45v0c0,-51.61101 41.83899,-93.45 93.45,-93.45h0c51.61101,0 93.45,41.83899 93.45,93.45v0c0,51.61101 -41.83899,93.45 -93.45,93.45z" fill="none"/><path d="M105,194.25c-49.29141,0 -89.25,-39.95859 -89.25,-89.25v0c0,-49.29141 39.95859,-89.25 89.25,-89.25v0c49.29141,0 89.25,39.95859 89.25,89.25v0c0,49.29141 -39.95859,89.25 -89.25,89.25z" fill="none"/><path d="M105,198.45c-51.61101,0 -93.45,-41.83899 -93.45,-93.45v0c0,-51.61101 41.83899,-93.45 93.45,-93.45h0c51.61101,0 93.45,41.83899 93.45,93.45v0c0,51.61101 -41.83899,93.45 -93.45,93.45z" fill="none"/><path d="M105,194.25c-49.29141,0 -89.25,-39.95859 -89.25,-89.25v0c0,-49.29141 39.95859,-89.25 89.25,-89.25v0c49.29141,0 89.25,39.95859 89.25,89.25v0c0,49.29141 -39.95859,89.25 -89.25,89.25z" fill="none"/><path d="M105,198.45c-51.61101,0 -93.45,-41.83899 -93.45,-93.45v0c0,-51.61101 41.83899,-93.45 93.45,-93.45h0c51.61101,0 93.45,41.83899 93.45,93.45v0c0,51.61101 -41.83899,93.45 -93.45,93.45z" fill="none"/><path d="M105,194.25c-49.29141,0 -89.25,-39.95859 -89.25,-89.25v0c0,-49.29141 39.95859,-89.25 89.25,-89.25v0c49.29141,0 89.25,39.95859 89.25,89.25v0c0,49.29141 -39.95859,89.25 -89.25,89.25z" fill="none"/><path d="M105,198.45c-51.61101,0 -93.45,-41.83899 -93.45,-93.45v0c0,-51.61101 41.83899,-93.45 93.45,-93.45h0c51.61101,0 93.45,41.83899 93.45,93.45v0c0,51.61101 -41.83899,93.45 -93.45,93.45z" fill="none"/><path d="M105,194.25c-49.29141,0 -89.25,-39.95859 -89.25,-89.25v0c0,-49.29141 39.95859,-89.25 89.25,-89.25v0c49.29141,0 89.25,39.95859 89.25,89.25v0c0,49.29141 -39.95859,89.25 -89.25,89.25z" fill="none"/><path d="M105,198.45c-51.61101,0 -93.45,-41.83899 -93.45,-93.45v0c0,-51.61101 41.83899,-93.45 93.45,-93.45h0c51.61101,0 93.45,41.83899 93.45,93.45v0c0,51.61101 -41.83899,93.45 -93.45,93.45z" fill="none"/><path d="M105,194.25c-49.29141,0 -89.25,-39.95859 -89.25,-89.25v0c0,-49.29141 39.95859,-89.25 89.25,-89.25v0c49.29141,0 89.25,39.95859 89.25,89.25v0c0,49.29141 -39.95859,89.25 -89.25,89.25z" fill="none"/><path d="M105,198.45c-51.61101,0 -93.45,-41.83899 -93.45,-93.45v0c0,-51.61101 41.83899,-93.45 93.45,-93.45h0c51.61101,0 93.45,41.83899 93.45,93.45v0c0,51.61101 -41.83899,93.45 -93.45,93.45z" fill="none"/><path d="M105,194.25c-49.29141,0 -89.25,-39.95859 -89.25,-89.25v0c0,-49.29141 39.95859,-89.25 89.25,-89.25v0c49.29141,0 89.25,39.95859 89.25,89.25v0c0,49.29141 -39.95859,89.25 -89.25,89.25z" fill="none"/><path d="M105,198.45c-51.61101,0 -93.45,-41.83899 -93.45,-93.45v0c0,-51.61101 41.83899,-93.45 93.45,-93.45h0c51.61101,0 93.45,41.83899 93.45,93.45v0c0,51.61101 -41.83899,93.45 -93.45,93.45z" fill="none"/><path d="M105,194.25c-49.29141,0 -89.25,-39.95859 -89.25,-89.25v0c0,-49.29141 39.95859,-89.25 89.25,-89.25v0c49.29141,0 89.25,39.95859 89.25,89.25v0c0,49.29141 -39.95859,89.25 -89.25,89.25z" fill="none"/><path d="M105,198.45c-51.61101,0 -93.45,-41.83899 -93.45,-93.45v0c0,-51.61101 41.83899,-93.45 93.45,-93.45h0c51.61101,0 93.45,41.83899 93.45,93.45v0c0,51.61101 -41.83899,93.45 -93.45,93.45z" fill="none"/><path d="M105,194.25c-49.29141,0 -89.25,-39.95859 -89.25,-89.25v0c0,-49.29141 39.95859,-89.25 89.25,-89.25v0c49.29141,0 89.25,39.95859 89.25,89.25v0c0,49.29141 -39.95859,89.25 -89.25,89.25z" fill="none"/><path d="M105,198.45c-51.61101,0 -93.45,-41.83899 -93.45,-93.45v0c0,-51.61101 41.83899,-93.45 93.45,-93.45h0c51.61101,0 93.45,41.83899 93.45,93.45v0c0,51.61101 -41.83899,93.45 -93.45,93.45z" fill="none"/><path d="M105,194.25c-49.29141,0 -89.25,-39.95859 -89.25,-89.25v0c0,-49.29141 39.95859,-89.25 89.25,-89.25v0c49.29141,0 89.25,39.95859 89.25,89.25v0c0,49.29141 -39.95859,89.25 -89.25,89.25z" fill="none"/></g></g></svg>
